<?xml version="1.0" encoding="UTF-8" standalone="no"?>
<!-- Created with Inkscape (http://www.inkscape.org/) -->

<svg
   width="1000"
   height="1000"
   viewBox="0 0 264.58332 264.58333"
   version="1.1"
   id="svg5"
   sodipodi:docname="next.svg"
   inkscape:version="1.2.1 (9c6d41e410, 2022-07-14)"
   xmlns:inkscape="http://www.inkscape.org/namespaces/inkscape"
   xmlns:sodipodi="http://sodipodi.sourceforge.net/DTD/sodipodi-0.dtd"
   xmlns="http://www.w3.org/2000/svg"
   xmlns:svg="http://www.w3.org/2000/svg">
  <sodipodi:namedview
     id="namedview7"
     pagecolor="#ffffff"
     bordercolor="#000000"
     borderopacity="0.25"
     inkscape:showpageshadow="2"
     inkscape:pageopacity="0.0"
     inkscape:pagecheckerboard="0"
     inkscape:deskcolor="#d1d1d1"
     inkscape:document-units="px"
     showgrid="false"
     inkscape:zoom="0.4005"
     inkscape:cx="-330.83645"
     inkscape:cy="745.31835"
     inkscape:window-width="1920"
     inkscape:window-height="991"
     inkscape:window-x="-9"
     inkscape:window-y="-9"
     inkscape:window-maximized="1"
     inkscape:current-layer="layer1" />
  <defs
     id="defs2" />
  <g
     inkscape:label="Layer 1"
     inkscape:groupmode="layer"
     id="layer1">
    <path
       id="rect341"
       style="fill:#f2f2f2;fill-opacity:1;stroke-width:2.64583"
       d="m -92.312045,287.6503 c -0.37632,0.0102 -0.7533,0.0386 -1.12965,0.0858 -0.37635,0.0472 -0.75227,0.11304 -1.12603,0.19792 -0.37376,0.0849 -0.74562,0.18882 -1.11414,0.31212 -0.36853,0.1233 -0.73384,0.26598 -1.09451,0.4284 -0.36067,0.16242 -0.71643,0.34448 -1.0666,0.54674 l -75.077585,43.36427 -75.07759,-43.36376 c -0.35017,-0.20225 -0.70593,-0.38431 -1.0666,-0.54673 -0.36066,-0.16243 -0.72598,-0.3051 -1.09451,-0.4284 -0.36852,-0.1233 -0.74038,-0.22725 -1.11414,-0.31213 -0.37376,-0.0849 -0.74968,-0.15075 -1.12603,-0.19792 -0.37635,-0.0472 -0.75333,-0.0756 -1.12965,-0.0858 -0.37631,-0.0102 -0.75186,-0.002 -1.12551,0.0243 -0.37365,0.0261 -0.74528,0.07 -1.11363,0.13177 -0.36834,0.0617 -0.73357,0.14109 -1.09399,0.23771 -0.36041,0.0966 -0.71572,0.21078 -1.06556,0.34158 -0.34985,0.13081 -0.69378,0.27859 -1.03043,0.44287 -0.33665,0.16429 -0.6662,0.34503 -0.98702,0.54209 -0.32082,0.19705 -0.63299,0.41012 -0.93534,0.63923 -0.30236,0.22912 -0.59518,0.47437 -0.87644,0.73484 -0.28125,0.26048 -0.55121,0.53621 -0.80873,0.82734 -0.25753,0.29113 -0.50264,0.59722 -0.73381,0.91829 -0.23116,0.32108 -0.44843,0.65738 -0.6506,1.00769 -0.20218,0.35032 -0.38386,0.70631 -0.54622,1.06712 -0.16236,0.36082 -0.30515,0.72635 -0.4284,1.09503 -0.12326,0.36868 -0.22727,0.74075 -0.31213,1.11466 -0.0848,0.37391 -0.15076,0.74952 -0.19792,1.12603 -0.0472,0.3765 -0.0756,0.75369 -0.0858,1.13016 -0.0102,0.37647 -0.002,0.75223 0.0243,1.12603 0.0261,0.3738 0.0701,0.74564 0.13177,1.11414 0.0617,0.3685 0.14114,0.73395 0.23771,1.09451 0.0966,0.36056 0.21033,0.71609 0.34107,1.06608 0.13074,0.35 0.27815,0.69416 0.44235,1.03095 0.1642,0.33679 0.34512,0.66658 0.54208,0.98754 0.19696,0.32095 0.41023,0.63338 0.63924,0.93586 0.22901,0.30247 0.47396,0.59505 0.73432,0.87643 0.26036,0.28137 0.53634,0.5511 0.82734,0.80873 0.291,0.25764 0.59684,0.50306 0.91778,0.73433 0.32093,0.23126 0.65648,0.44835 1.00665,0.6506 l 80.90618,46.73048 c 0.0347,0.02 0.0702,0.0378 0.1049,0.0574 0.10564,0.0598 0.21207,0.11771 0.31936,0.17415 0.0599,0.0314 0.12011,0.0627 0.18035,0.093 0.11582,0.0583 0.23283,0.11408 0.35037,0.16847 0.0607,0.0282 0.12138,0.0567 0.18242,0.0837 0.10766,0.0476 0.21607,0.0921 0.32504,0.13643 0.0734,0.0298 0.14694,0.0606 0.22066,0.0889 0.0985,0.0377 0.19767,0.0724 0.29714,0.10749 0.0846,0.0298 0.16927,0.0601 0.25425,0.0879 0.0823,0.0268 0.16518,0.0515 0.24804,0.0765 0.10313,0.0312 0.20598,0.0627 0.30954,0.091 0.0688,0.0187 0.13815,0.0353 0.20723,0.0527 0.11525,0.0291 0.23058,0.0581 0.34623,0.0837 0.0601,0.0132 0.12105,0.0244 0.18138,0.0367 0.12564,0.0256 0.25128,0.051 0.37724,0.0723 0.0532,0.009 0.10633,0.016 0.15968,0.0243 0.13178,0.0205 0.26386,0.0409 0.39584,0.0568 0.0602,0.007 0.12054,0.0113 0.18087,0.0176 0.12472,0.013 0.24938,0.0268 0.37414,0.0357 0.069,0.005 0.13858,0.007 0.20774,0.0103 0.11789,0.006 0.23567,0.0132 0.35346,0.016 0.0911,0.002 0.18211,0.001 0.27337,0.001 0.0818,-4e-5 0.16379,0.003 0.24547,5.2e-4 0.009,-1.9e-4 0.0186,-4.3e-4 0.0279,-0.002 0.1178,-0.003 0.23556,-0.01 0.35347,-0.016 0.0691,-0.004 0.13872,-0.005 0.20774,-0.0109 0.12476,-0.009 0.24941,-0.0226 0.37413,-0.0356 0.0603,-0.006 0.12067,-0.0103 0.18087,-0.0176 0.13198,-0.0159 0.26405,-0.0363 0.39584,-0.0568 0.0533,-0.008 0.10648,-0.0148 0.15968,-0.0238 0.12596,-0.0214 0.2516,-0.0472 0.37724,-0.0729 0.0603,-0.0123 0.12128,-0.0234 0.18139,-0.0367 0.11566,-0.0255 0.23097,-0.0545 0.34623,-0.0837 0.0691,-0.0175 0.13847,-0.0341 0.20722,-0.0527 0.10356,-0.0283 0.20641,-0.0598 0.30954,-0.091 0.0829,-0.025 0.16575,-0.0492 0.24805,-0.076 0.085,-0.0278 0.16963,-0.0586 0.25425,-0.0884 0.0995,-0.035 0.19862,-0.0697 0.29714,-0.10749 0.0737,-0.0282 0.14726,-0.0585 0.22065,-0.0884 0.10897,-0.0442 0.21738,-0.0893 0.32505,-0.13695 0.061,-0.027 0.12165,-0.0555 0.18242,-0.0837 0.11754,-0.0544 0.23455,-0.11011 0.35036,-0.16847 0.0602,-0.0303 0.12042,-0.0615 0.18035,-0.093 0.10729,-0.0564 0.21372,-0.11428 0.31936,-0.17415 0.0348,-0.0196 0.0703,-0.0374 0.10491,-0.0574 l 80.906165,-46.72997 c 0.35017,-0.20225 0.68572,-0.41986 1.00665,-0.65112 0.32094,-0.23126 0.62678,-0.47617 0.91778,-0.73381 0.291,-0.25763 0.56698,-0.52788 0.82734,-0.80925 0.26036,-0.28137 0.50531,-0.57395 0.73432,-0.87643 0.22901,-0.30248 0.44228,-0.61491 0.63924,-0.93586 0.19696,-0.32095 0.37788,-0.65075 0.54208,-0.98754 0.16421,-0.33679 0.31161,-0.68043 0.44235,-1.03043 0.13074,-0.34999 0.2445,-0.70603 0.34107,-1.0666 0.09657,-0.36056 0.17601,-0.726 0.23771,-1.0945 0.0617,-0.3685 0.10566,-0.74034 0.13177,-1.11415 0.02612,-0.3738 0.03446,-0.74955 0.02429,-1.12603 -0.01017,-0.37647 -0.03862,-0.75365 -0.08578,-1.13016 -0.04716,-0.37651 -0.11307,-0.75212 -0.19792,-1.12603 -0.08485,-0.37391 -0.18887,-0.74598 -0.31213,-1.11466 -0.12325,-0.36868 -0.26604,-0.73421 -0.42839,-1.09502 -0.16236,-0.36082 -0.34405,-0.71681 -0.54622,-1.06712 -0.20218,-0.35032 -0.41944,-0.6861 -0.65061,-1.00718 -0.23117,-0.32107 -0.47628,-0.62767 -0.73381,-0.9188 -0.25752,-0.29113 -0.52747,-0.56687 -0.80873,-0.82734 -0.28126,-0.26048 -0.57408,-0.50572 -0.87643,-0.73484 -0.30236,-0.22912 -0.61453,-0.44219 -0.93535,-0.63924 -0.32082,-0.19705 -0.65037,-0.3778 -0.98702,-0.54209 -0.33665,-0.16428 -0.68058,-0.31206 -1.03043,-0.44286 -0.34984,-0.13081 -0.70515,-0.24496 -1.06556,-0.34158 -0.36042,-0.0966 -0.72565,-0.17598 -1.09399,-0.23771 -0.36835,-0.0617 -0.73998,-0.10564 -1.11363,-0.13178 -0.37365,-0.0261 -0.7492,-0.0345 -1.12551,-0.0243 z" />
    <path
       id="path390"
       style="fill:#333333;fill-opacity:1;stroke-width:2.64583"
       d="M 0 0 L 0 264.58332 L 264.58332 264.58332 L 264.58332 0 L 0 0 z M 212.90018 111.26142 C 213.27649 111.25126 213.65204 111.25957 214.02569 111.28571 C 214.39934 111.31185 214.77097 111.35575 215.13932 111.41749 C 215.50766 111.47922 215.87289 111.55857 216.23331 111.6552 C 216.59372 111.75182 216.94903 111.86597 217.29887 111.99678 C 217.64872 112.12758 217.99265 112.27536 218.3293 112.43964 C 218.66595 112.60393 218.9955 112.78468 219.31632 112.98173 C 219.63714 113.17878 219.94931 113.39185 220.25167 113.62097 C 220.55402 113.85009 220.84684 114.09533 221.1281 114.35581 C 221.40936 114.61628 221.67931 114.89202 221.93683 115.18315 C 222.19436 115.47428 222.43947 115.78088 222.67064 116.10195 C 222.90181 116.42303 223.11907 116.75881 223.32125 117.10913 C 223.52342 117.45944 223.70511 117.81543 223.86747 118.17625 C 224.02982 118.53706 224.17261 118.90259 224.29586 119.27127 C 224.41912 119.63995 224.52314 120.01202 224.60799 120.38593 C 224.69284 120.75984 224.75875 121.13545 224.80591 121.51196 C 224.85307 121.88847 224.88152 122.26565 224.89169 122.64212 C 224.90186 123.0186 224.89352 123.39435 224.8674 123.76815 C 224.84129 124.14196 224.79733 124.5138 224.73563 124.8823 C 224.67393 125.2508 224.59449 125.61624 224.49792 125.9768 C 224.40135 126.33737 224.28759 126.69341 224.15685 127.0434 C 224.02611 127.3934 223.87871 127.73704 223.7145 128.07383 C 223.5503 128.41062 223.36938 128.74042 223.17242 129.06137 C 222.97546 129.38232 222.76219 129.69475 222.53318 129.99723 C 222.30417 130.29971 222.05922 130.59229 221.79886 130.87366 C 221.5385 131.15503 221.26252 131.42528 220.97152 131.68291 C 220.68052 131.94055 220.37468 132.18546 220.05374 132.41672 C 219.73281 132.64798 219.39726 132.86559 219.04709 133.06784 L 138.14092 179.79781 C 138.10631 179.81781 138.07081 179.83557 138.03601 179.85517 C 137.93037 179.91504 137.82394 179.97292 137.71665 180.02932 C 137.65672 180.06082 137.5965 180.09203 137.5363 180.12233 C 137.42049 180.18069 137.30348 180.2364 137.18594 180.2908 C 137.12517 180.319 137.06452 180.34751 137.00352 180.37451 C 136.89585 180.42212 136.78744 180.46726 136.67847 180.51146 C 136.60508 180.54136 136.53152 180.57162 136.45782 180.59982 C 136.3593 180.63764 136.26018 180.67231 136.16068 180.70731 C 136.07606 180.73711 135.99143 180.76788 135.90643 180.79568 C 135.82413 180.82248 135.74128 180.84664 135.65838 180.87164 C 135.55525 180.90284 135.4524 180.93429 135.34884 180.96259 C 135.28009 180.98119 135.21072 180.9978 135.14162 181.0153 C 135.02636 181.0445 134.91105 181.07352 134.79539 181.09902 C 134.73528 181.11232 134.6743 181.12341 134.614 181.13571 C 134.48836 181.16141 134.36272 181.18717 134.23676 181.20857 C 134.18356 181.21757 134.13038 181.22434 134.07708 181.23234 C 133.94529 181.25284 133.81322 181.27329 133.68124 181.28919 C 133.62104 181.29649 133.56067 181.30076 133.50037 181.30676 C 133.37565 181.31976 133.251 181.33341 133.12624 181.34241 C 133.05722 181.34791 132.9876 181.34927 132.9185 181.35327 C 132.80059 181.35927 132.68283 181.36629 132.56503 181.36929 C 132.55573 181.37041 132.54613 181.37065 132.53713 181.37084 C 132.45545 181.37339 132.37346 181.37028 132.29166 181.37032 C 132.2004 181.37032 132.10939 181.37129 132.01829 181.36929 C 131.9005 181.36649 131.78272 181.35927 131.66483 181.35327 C 131.59567 181.34977 131.52609 181.34793 131.45709 181.34293 C 131.33233 181.33403 131.20767 181.32027 131.08295 181.30727 C 131.02262 181.30097 130.96228 181.2967 130.90208 181.2897 C 130.7701 181.2738 130.63802 181.25336 130.50624 181.23286 C 130.45289 181.22456 130.39976 181.21757 130.34656 181.20857 C 130.2206 181.18717 130.09496 181.16182 129.96932 181.13622 C 129.90899 181.12392 129.84804 181.11273 129.78794 181.09953 C 129.67229 181.07393 129.55696 181.04492 129.44171 181.01582 C 129.37263 180.99842 129.30328 180.98181 129.23448 180.96311 C 129.13092 180.93491 129.02807 180.90336 128.92494 180.87216 C 128.84208 180.84716 128.7592 180.82248 128.6769 180.79568 C 128.59192 180.76788 128.50725 180.73763 128.42265 180.70783 C 128.32318 180.67271 128.22401 180.63804 128.12551 180.60034 C 128.05179 180.57204 127.97825 180.54126 127.90485 180.51146 C 127.79588 180.46715 127.68747 180.42263 127.57981 180.37503 C 127.51877 180.34803 127.45809 180.31952 127.39739 180.29132 C 127.27985 180.23693 127.16284 180.18115 127.04702 180.12285 C 126.98678 180.09255 126.92657 180.06123 126.86667 180.02983 C 126.75938 179.97339 126.65295 179.91548 126.54731 179.85568 C 126.51259 179.83608 126.47711 179.81832 126.44241 179.79832 L 45.536237 133.06784 C 45.186067 132.86559 44.850519 132.6485 44.52958 132.41724 C 44.208641 132.18597 43.902809 131.94055 43.611807 131.68291 C 43.320805 131.42528 43.044828 131.15555 42.784467 130.87418 C 42.524107 130.5928 42.279158 130.30022 42.050145 129.99775 C 41.821132 129.69527 41.607868 129.38284 41.410908 129.06189 C 41.213947 128.74093 41.033024 128.41114 40.868822 128.07435 C 40.70462 127.73756 40.557211 127.3934 40.426472 127.0434 C 40.295733 126.69341 40.181978 126.33788 40.085407 125.97732 C 39.988837 125.61676 39.909392 125.25131 39.847696 124.88281 C 39.785999 124.51431 39.742038 124.14247 39.715921 123.76867 C 39.689804 123.39487 39.681465 123.01911 39.691633 122.64264 C 39.701801 122.26617 39.730258 121.88898 39.777416 121.51248 C 39.824573 121.13597 39.890483 120.76036 39.975336 120.38645 C 40.06019 120.01254 40.164208 119.64047 40.287462 119.27179 C 40.410716 118.90311 40.5535 118.53758 40.71586 118.17676 C 40.87822 117.81595 41.059908 117.45996 41.26208 117.10964 C 41.464251 116.75933 41.68152 116.42303 41.912686 116.10195 C 42.143852 115.78088 42.388963 115.47479 42.646491 115.18366 C 42.904019 114.89253 43.17397 114.6168 43.455227 114.35632 C 43.736485 114.09585 44.029306 113.8506 44.33166 113.62148 C 44.634014 113.39237 44.946185 113.1793 45.267003 112.98225 C 45.587821 112.78519 45.917373 112.60445 46.254023 112.44016 C 46.590673 112.27588 46.934602 112.1281 47.284451 111.99729 C 47.634299 111.86649 47.989604 111.75234 48.350019 111.65571 C 48.710434 111.55909 49.07566 111.47974 49.444009 111.418 C 49.812357 111.35627 50.183986 111.31237 50.557636 111.28623 C 50.931286 111.26009 51.306831 111.25178 51.683149 111.26194 C 52.059467 111.2721 52.436442 111.30056 52.812795 111.34772 C 53.189149 111.39489 53.565068 111.46076 53.938825 111.54564 C 54.312582 111.63052 54.684441 111.73447 55.052969 111.85777 C 55.421496 111.98107 55.78681 112.12374 56.147475 112.28617 C 56.508141 112.44859 56.863906 112.63065 57.214077 112.8329 L 132.29166 156.19666 L 207.36925 112.83239 C 207.71942 112.63013 208.07518 112.44807 208.43585 112.28565 C 208.79652 112.12323 209.16183 111.98055 209.53036 111.85725 C 209.89888 111.73395 210.27074 111.63001 210.6445 111.54513 C 211.01826 111.46025 211.39418 111.39437 211.77053 111.34721 C 212.14688 111.30004 212.52386 111.27158 212.90018 111.26142 z " />
    <path
       id="rect510"
       style="fill:#ffffff;stroke-width:2.28213"
       d="m -120.1129,115.69328 c 0.10927,2e-5 0.2186,-0.001 0.32763,-0.004 0.10356,-0.003 0.2074,-0.006 0.31109,-0.0114 0.11967,-0.006 0.23886,-0.0132 0.35812,-0.0222 0.0874,-0.007 0.17448,-0.0139 0.262,-0.0222 0.13296,-0.0127 0.2656,-0.0273 0.3979,-0.0439 0.081,-0.0102 0.16151,-0.0213 0.24237,-0.0331 0.14592,-0.0211 0.29174,-0.0449 0.43667,-0.0708 0.0575,-0.0103 0.11464,-0.0204 0.17208,-0.0315 0.17424,-0.0336 0.34728,-0.0707 0.51986,-0.1111 0.0323,-0.008 0.0647,-0.0149 0.0971,-0.0227 0.19546,-0.0473 0.38945,-0.099 0.5824,-0.15503 0.0132,-0.004 0.0267,-0.008 0.0398,-0.0114 0.35237,-0.10356 0.70032,-0.22158 1.04283,-0.35346 0.34251,-0.13189 0.67951,-0.27796 1.01027,-0.43822 l 84.390198,-39.380025 c 0.2091,-0.0976 0.4144,-0.20023 0.61598,-0.30696 0.20159,-0.10674 0.39932,-0.21779 0.59325,-0.33331 0.19393,-0.11553 0.38384,-0.2352 0.56999,-0.35916 0.18614,-0.12395 0.36851,-0.25194 0.54673,-0.38395 0.17823,-0.13201 0.35228,-0.26802 0.52245,-0.40773 0.17018,-0.1397 0.33669,-0.28343 0.49868,-0.43046 0.16199,-0.14704 0.31969,-0.29766 0.47336,-0.45165 0.15367,-0.154 0.30333,-0.31121 0.44855,-0.47181 0.14522,-0.1606 0.28608,-0.32462 0.42271,-0.49144 0.13664,-0.16683 0.26896,-0.33632 0.39688,-0.50902 0.12792,-0.17269 0.25145,-0.34838 0.37052,-0.52658 0.11907,-0.17819 0.23356,-0.35927 0.34365,-0.5426 0.11008,-0.18333 0.2158,-0.36897 0.31677,-0.55707 0.10097,-0.1881 0.19715,-0.37852 0.28887,-0.57103 0.09172,-0.1925 0.17863,-0.38688 0.26097,-0.58343 0.08234,-0.19654 0.16023,-0.39509 0.23306,-0.59531 0.07282,-0.20021 0.14094,-0.40212 0.20412,-0.60565 0.06318,-0.20352 0.12127,-0.409 0.17467,-0.61546 0.05339,-0.20646 0.10173,-0.41418 0.14521,-0.62322 0.04348,-0.20904 0.08232,-0.4192 0.11575,-0.63045 0.03344,-0.21125 0.0615,-0.42356 0.08475,-0.63666 0.02326,-0.21309 0.04132,-0.42673 0.05426,-0.6413 0.01294,-0.21457 0.02076,-0.43027 0.02326,-0.64596 0.0025,-0.21568 -1.9e-4,-0.43158 -0.0083,-0.64802 -0.0081,-0.21643 -0.02151,-0.43327 -0.04031,-0.65009 -0.01879,-0.21681 -0.0427,-0.43377 -0.07235,-0.6506 -0.02964,-0.21684 -0.06479,-0.43361 -0.10541,-0.65009 -0.04063,-0.21649 -0.08677,-0.43277 -0.1385,-0.64854 -0.05173,-0.21577 -0.1091,-0.43075 -0.17208,-0.64544 -0.06298,-0.21469 -0.13184,-0.42909 -0.20619,-0.64234 -0.07435,-0.21324 -0.15443,-0.42522 -0.24029,-0.63665 -0.08587,-0.21144 -0.17742,-0.42223 -0.27492,-0.63149 -0.09751,-0.20926 -0.19979,-0.41477 -0.30644,-0.6165 -0.10666,-0.20173 -0.21787,-0.39969 -0.33332,-0.59376 -0.11544,-0.19407 -0.23477,-0.38423 -0.35863,-0.57051 -0.12387,-0.18628 -0.25204,-0.36838 -0.38396,-0.54674 -0.13192,-0.17835 -0.2676,-0.35266 -0.40721,-0.52296 -0.13961,-0.1703 -0.28301,-0.33657 -0.42995,-0.49868 -0.14693,-0.16211 -0.29776,-0.32009 -0.45165,-0.47387 -0.15389,-0.15379 -0.3108,-0.30374 -0.47129,-0.44907 -0.16048,-0.14533 -0.32421,-0.28598 -0.49092,-0.42271 -0.16671,-0.13674 -0.33644,-0.26938 -0.50902,-0.39739 -0.17257,-0.12802 -0.34799,-0.25188 -0.52606,-0.37104 -0.17807,-0.11916 -0.35888,-0.23348 -0.54209,-0.34365 -0.1832,-0.11017 -0.3691,-0.21573 -0.55707,-0.31678 -0.18797,-0.10104 -0.37814,-0.19759 -0.57051,-0.28938 -0.19237,-0.0918 -0.38702,-0.17909 -0.58342,-0.26149 -0.19641,-0.0824 -0.39472,-0.16018 -0.5948,-0.23306 -0.20008,-0.0729 -0.40175,-0.1409 -0.60513,-0.20412 -0.20338,-0.0632 -0.40811,-0.12123 -0.61443,-0.17467 -0.20632,-0.0534 -0.41433,-0.10221 -0.62322,-0.14572 -0.2089,-0.0435 -0.41884,-0.0818 -0.62994,-0.11524 -0.2111,-0.0335 -0.42319,-0.062 -0.63613,-0.0853 -0.21295,-0.0233 -0.42689,-0.0413 -0.64131,-0.0543 -0.21442,-0.0129 -0.42939,-0.0208 -0.64492,-0.0232 -0.21554,-0.003 -0.43122,1.8e-4 -0.64751,0.008 -0.21628,0.008 -0.43291,0.0215 -0.64957,0.0403 -0.21666,0.0188 -0.43341,0.0432 -0.65009,0.0729 -0.21668,0.0297 -0.43324,0.0648 -0.64957,0.10542 -0.21633,0.0406 -0.43241,0.0867 -0.64802,0.13849 -0.21562,0.0518 -0.43091,0.10906 -0.64544,0.17208 -0.21454,0.063 -0.42873,0.13178 -0.64182,0.20619 -0.21309,0.0744 -0.42538,0.15437 -0.63666,0.2403 -0.21128,0.0859 -0.42135,0.17785 -0.63045,0.27543 l -78.925928,36.83083 -78.92593,-36.83083 c -0.23524,-0.10977 -0.47206,-0.21244 -0.71003,-0.30747 -0.23797,-0.095 -0.4771,-0.18255 -0.71727,-0.26304 -0.24018,-0.0805 -0.48109,-0.15401 -0.72295,-0.22014 -0.24186,-0.0661 -0.48458,-0.12478 -0.72761,-0.17673 -0.24302,-0.052 -0.48652,-0.0969 -0.73019,-0.13488 -0.24366,-0.038 -0.48743,-0.0693 -0.73122,-0.0935 -0.24379,-0.0242 -0.48783,-0.0411 -0.73122,-0.0517 -0.24339,-0.0106 -0.48616,-0.0147 -0.72864,-0.0119 -0.30982,0.004 -0.61867,0.0183 -0.92604,0.0434 -0.30736,0.0251 -0.61344,0.0607 -0.91725,0.10697 -0.30382,0.0463 -0.60568,0.10299 -0.90486,0.17001 -0.29918,0.067 -0.59537,0.14465 -0.88883,0.23203 -0.29347,0.0874 -0.58409,0.18463 -0.87075,0.29197 -0.28666,0.10734 -0.56976,0.2245 -0.84853,0.3514 -0.27877,0.1269 -0.55289,0.26372 -0.82269,0.40979 -0.26979,0.14608 -0.53505,0.30128 -0.79478,0.46613 -0.25973,0.16484 -0.51416,0.33922 -0.76274,0.52244 -0.24859,0.18323 -0.49126,0.37551 -0.72761,0.57671 -0.23635,0.20121 -0.46633,0.41114 -0.68936,0.62994 -0.22304,0.2188 -0.43939,0.44614 -0.64802,0.68213 -0.20864,0.23599 -0.40941,0.4805 -0.60255,0.73329 -0.19315,0.25278 -0.37844,0.51422 -0.55501,0.78341 -0.17657,0.26919 -0.34441,0.54628 -0.50333,0.83148 -0.15891,0.28519 -0.3089,0.5782 -0.44906,0.87901 -0.0975,0.20926 -0.18906,0.42005 -0.27492,0.63149 -0.0859,0.21143 -0.16594,0.42341 -0.2403,0.63665 -0.0743,0.21325 -0.14321,0.42765 -0.20619,0.64234 -0.063,0.21469 -0.12035,0.43018 -0.17208,0.64595 -0.0517,0.21578 -0.0979,0.43154 -0.13849,0.64803 -0.0406,0.21648 -0.0758,0.43325 -0.10542,0.65009 -0.0296,0.21683 -0.0536,0.43379 -0.0724,0.6506 -0.0188,0.21682 -0.0322,0.43366 -0.0403,0.65009 -0.008,0.21644 -0.0108,0.43285 -0.008,0.64854 0.002,0.21569 0.0103,0.43087 0.0233,0.64544 0.0129,0.21457 0.031,0.42821 0.0543,0.6413 0.0233,0.2131 0.0513,0.42541 0.0847,0.63666 0.0334,0.21125 0.0723,0.42141 0.11575,0.63045 0.0435,0.20904 0.0918,0.41676 0.14522,0.62322 0.0534,0.20646 0.11148,0.41194 0.17466,0.61546 0.0632,0.20353 0.1313,0.40544 0.20412,0.60565 0.0728,0.20022 0.15072,0.39877 0.23306,0.59531 0.0823,0.19655 0.16925,0.39093 0.26097,0.58343 0.0917,0.19251 0.1879,0.38293 0.28887,0.57103 0.10097,0.1881 0.20669,0.37374 0.31678,0.55707 0.11008,0.18333 0.22458,0.36441 0.34365,0.5426 0.11907,0.1782 0.2426,0.35389 0.37052,0.52658 0.12792,0.1727 0.26023,0.34219 0.39687,0.50902 0.13664,0.16682 0.27749,0.33084 0.42271,0.49144 0.14523,0.1606 0.29488,0.31781 0.44856,0.47181 0.15367,0.15399 0.31136,0.30461 0.47335,0.45165 0.16199,0.14703 0.32851,0.29076 0.49868,0.43046 0.17017,0.13971 0.34422,0.27572 0.52245,0.40773 0.17822,0.13201 0.36059,0.26 0.54673,0.38395 0.18615,0.12396 0.37606,0.24363 0.57,0.35916 0.19393,0.11552 0.39166,0.22657 0.59324,0.33331 0.20159,0.10673 0.40688,0.20938 0.61598,0.30696 l 84.38399,39.377445 c 0.33165,0.16087 0.66978,0.30746 1.01338,0.43976 0.3436,0.13231 0.69255,0.25065 1.04593,0.3545 0.0132,0.004 0.0267,0.008 0.0398,0.0114 0.19298,0.056 0.38694,0.10772 0.58239,0.15503 0.0323,0.008 0.0648,0.0152 0.0971,0.0227 0.17257,0.0404 0.34561,0.0777 0.51987,0.1111 0.0574,0.0111 0.11461,0.0213 0.17208,0.0315 0.14494,0.0259 0.29076,0.0497 0.43667,0.0708 0.0808,0.0118 0.16146,0.0228 0.24236,0.0331 0.13231,0.0166 0.26493,0.0313 0.39791,0.0439 0.0876,0.008 0.17452,0.0156 0.262,0.0222 0.11924,0.009 0.23844,0.0165 0.35811,0.0222 0.10369,0.005 0.20754,0.009 0.3111,0.0114 0.10921,0.003 0.21818,0.004 0.32763,0.004 z" />
    <path
       id="path512"
       style="fill:#f2f2f2;fill-opacity:1;stroke-width:2.28213"
       d="m -212.06304,-72.008945 v 66.1458321 h 97.89583 c -0.10945,0 -0.21842,-0.0011 -0.32763,-0.0041 -0.10356,-0.0024 -0.2074,-0.0064 -0.31109,-0.01137 -0.11967,-0.0058 -0.23888,-0.01312 -0.35812,-0.02222 -0.0875,-0.0067 -0.1744,-0.01412 -0.262,-0.02222 -0.13298,-0.0126 -0.2656,-0.02729 -0.39791,-0.04393 -0.0809,-0.01028 -0.16156,-0.02128 -0.24236,-0.03307 -0.14591,-0.02107 -0.29172,-0.04489 -0.43666,-0.0708 -0.0575,-0.01028 -0.11469,-0.02043 -0.17209,-0.03152 -0.17426,-0.03345 -0.34729,-0.07068 -0.51986,-0.111105 -0.0324,-0.0076 -0.0649,-0.01464 -0.0971,-0.02274 -0.19545,-0.04731 -0.38941,-0.09898 -0.58239,-0.15503 -0.0131,-0.0034 -0.0266,-0.0074 -0.0398,-0.01137 -0.35339,-0.103856 -0.70234,-0.222192 -1.04593,-0.354501 -0.3436,-0.132308 -0.68173,-0.278894 -1.01338,-0.439766 l -84.384,-39.3774671 c -0.2091,-0.09758 -0.4144,-0.200223 -0.61598,-0.306958 -0.20158,-0.106736 -0.39931,-0.217787 -0.59325,-0.333313 -0.19393,-0.115527 -0.38384,-0.2352 -0.56999,-0.359152 -0.18614,-0.123952 -0.36851,-0.251944 -0.54673,-0.383956 -0.17823,-0.132011 -0.35228,-0.26802 -0.52245,-0.407727 -0.17018,-0.139706 -0.33669,-0.283429 -0.49868,-0.430464 -0.16199,-0.147035 -0.31968,-0.297654 -0.47336,-0.451652 -0.15367,-0.153998 -0.30333,-0.31121 -0.44855,-0.471806 -0.14522,-0.160596 -0.28607,-0.324615 -0.42271,-0.491443 -0.13664,-0.166827 -0.26896,-0.336319 -0.39688,-0.509013 -0.12791,-0.172694 -0.25145,-0.348388 -0.37052,-0.526583 -0.11906,-0.178194 -0.23356,-0.359272 -0.34364,-0.542602 -0.11009,-0.18333 -0.21581,-0.368973 -0.31678,-0.557072 -0.10097,-0.188099 -0.19715,-0.378521 -0.28887,-0.571025 -0.0917,-0.192503 -0.17863,-0.386885 -0.26097,-0.583427 -0.0823,-0.196541 -0.16023,-0.395098 -0.23306,-0.595312 -0.0728,-0.200214 -0.14094,-0.402126 -0.20412,-0.605648 -0.0632,-0.203521 -0.12127,-0.409003 -0.17467,-0.615466 -0.0534,-0.206463 -0.10173,-0.414179 -0.14521,-0.623218 -0.0435,-0.209039 -0.0823,-0.419203 -0.11575,-0.630452 -0.0334,-0.21125 -0.0615,-0.42356 -0.0847,-0.636654 -0.0233,-0.213094 -0.0413,-0.426731 -0.0543,-0.641304 -0.0129,-0.214574 -0.0208,-0.429752 -0.0233,-0.645439 -0.002,-0.215687 1.9e-4,-0.432104 0.008,-0.648539 0.008,-0.216435 0.0215,-0.433273 0.0403,-0.65009 0.0188,-0.216817 0.0427,-0.433772 0.0724,-0.650606 0.0296,-0.216834 0.0648,-0.433604 0.10542,-0.65009 0.0406,-0.216485 0.0868,-0.432251 0.13849,-0.648022 0.0517,-0.215771 0.10911,-0.431265 0.17208,-0.645955 0.063,-0.214691 0.13184,-0.429093 0.20619,-0.642338 0.0744,-0.213245 0.15443,-0.42522 0.2403,-0.636654 0.0859,-0.211434 0.17741,-0.422229 0.27492,-0.631486 0.14016,-0.300807 0.29015,-0.593821 0.44906,-0.879016 0.15891,-0.285195 0.32676,-0.562285 0.50333,-0.831474 0.17657,-0.269188 0.36186,-0.530628 0.55501,-0.783414 0.19314,-0.252787 0.39391,-0.4973 0.60254,-0.733289 0.20864,-0.235989 0.42499,-0.463332 0.64803,-0.682129 0.22303,-0.218796 0.45301,-0.428727 0.68936,-0.629936 0.23635,-0.201208 0.47902,-0.393484 0.7276,-0.576708 0.24859,-0.183225 0.50302,-0.357603 0.76275,-0.522449 0.25973,-0.164846 0.52499,-0.320049 0.79478,-0.466122 0.26979,-0.146072 0.54392,-0.282891 0.82269,-0.409794 0.27877,-0.126903 0.56187,-0.244061 0.84853,-0.351399 0.28666,-0.107339 0.57728,-0.204594 0.87075,-0.291972 0.29346,-0.08738 0.58965,-0.165005 0.88883,-0.232027 0.29918,-0.06702 0.60104,-0.123744 0.90485,-0.170016 0.30382,-0.04627 0.6099,-0.08184 0.91726,-0.10697 0.30737,-0.02513 0.61622,-0.03982 0.92604,-0.04341 0.24248,-0.0028 0.48525,0.0013 0.72864,0.01188 0.24339,0.0106 0.48743,0.02748 0.73122,0.05168 0.24379,0.02419 0.48756,0.05556 0.73122,0.09353 0.24367,0.03798 0.48717,0.08292 0.73019,0.134875 0.24303,0.05196 0.48575,0.110611 0.72761,0.176734 0.24186,0.06612 0.48277,0.139659 0.72295,0.220141 0.24017,0.08048 0.4793,0.168 0.71727,0.263034 0.23797,0.09503 0.47479,0.197699 0.71003,0.307474 l 78.92593,36.830826 78.92593,-36.830826 c 0.2091,-0.09758 0.41917,-0.189509 0.63045,-0.275435 0.21128,-0.08593 0.42357,-0.165888 0.63666,-0.240296 0.21309,-0.07441 0.42728,-0.143167 0.64182,-0.206188 0.21453,-0.06302 0.42982,-0.120314 0.64544,-0.172083 0.21561,-0.05177 0.43169,-0.09784 0.64802,-0.138493 0.21633,-0.04065 0.43289,-0.07576 0.64957,-0.10542 0.21668,-0.02966 0.43343,-0.05405 0.65009,-0.07286 0.21666,-0.01881 0.43329,-0.03222 0.64957,-0.04031 0.21629,-0.0081 0.43197,-0.01076 0.64751,-0.0083 0.21553,0.0025 0.4305,0.0103 0.64492,0.02325 0.21442,0.01295 0.42836,0.03099 0.64131,0.05426 0.21294,0.02327 0.42503,0.05181 0.63613,0.08527 0.2111,0.03346 0.42104,0.07173 0.62994,0.115239 0.20889,0.04351 0.4169,0.09229 0.62322,0.145727 0.20632,0.05343 0.41105,0.111444 0.61443,0.174667 0.20338,0.06322 0.40505,0.131244 0.60513,0.204122 0.20008,0.07288 0.39839,0.15066 0.5948,0.23306 0.1964,0.0824 0.39105,0.169694 0.58342,0.261483 0.19237,0.09179 0.38254,0.188343 0.57051,0.289388 0.18797,0.101045 0.37387,0.206609 0.55707,0.316777 0.18321,0.110167 0.36402,0.224491 0.54209,0.343648 0.17807,0.119157 0.35349,0.243023 0.52606,0.371037 0.17258,0.128013 0.34231,0.260655 0.50902,0.397391 0.16671,0.136737 0.33044,0.277387 0.49092,0.422714 0.16049,0.145327 0.3174,0.295284 0.47129,0.449068 0.15389,0.153784 0.30472,0.311765 0.45165,0.473873 0.14694,0.162108 0.29034,0.328378 0.42995,0.498677 0.13961,0.170299 0.27529,0.344609 0.40721,0.522966 0.13192,0.178357 0.26009,0.360455 0.38396,0.546736 0.12386,0.186282 0.24319,0.376435 0.35863,0.570508 0.11545,0.194073 0.22666,0.392031 0.33332,0.593762 0.10665,0.201732 0.20893,0.407243 0.30644,0.6165 0.0975,0.209257 0.18905,0.420052 0.27492,0.631486 0.0859,0.211434 0.16594,0.423409 0.24029,0.636654 0.0744,0.213245 0.14321,0.427647 0.20619,0.642338 0.063,0.21469 0.12035,0.429668 0.17208,0.645438 0.0517,0.215771 0.0979,0.432054 0.1385,0.648539 0.0406,0.216486 0.0758,0.433256 0.10541,0.65009 0.0297,0.216834 0.0536,0.433789 0.0724,0.650606 0.0188,0.216817 0.0322,0.433655 0.0403,0.65009 0.008,0.216435 0.0108,0.432335 0.008,0.648022 -0.002,0.215687 -0.0103,0.431382 -0.0233,0.645956 -0.0129,0.214573 -0.031,0.42821 -0.0543,0.641304 -0.0232,0.213094 -0.0513,0.425404 -0.0848,0.636654 -0.0334,0.211249 -0.0723,0.421413 -0.11575,0.630452 -0.0435,0.209039 -0.0918,0.416755 -0.14521,0.623218 -0.0534,0.206463 -0.11149,0.411945 -0.17467,0.615466 -0.0632,0.203522 -0.1313,0.405434 -0.20412,0.605648 -0.0728,0.200214 -0.15072,0.398771 -0.23306,0.595312 -0.0823,0.196542 -0.16925,0.390924 -0.26097,0.583427 -0.0917,0.192504 -0.1879,0.382926 -0.28887,0.571025 -0.10097,0.188099 -0.20669,0.373742 -0.31677,0.557072 -0.11009,0.18333 -0.22458,0.364408 -0.34365,0.542602 -0.11907,0.178195 -0.2426,0.353889 -0.37052,0.526583 -0.12792,0.172694 -0.26024,0.342186 -0.39688,0.509013 -0.13663,0.166828 -0.27749,0.330847 -0.42271,0.491443 -0.14522,0.160596 -0.29488,0.317808 -0.44855,0.471806 -0.15367,0.153998 -0.31137,0.304617 -0.47336,0.451652 -0.16199,0.147035 -0.3285,0.290758 -0.49868,0.430464 -0.17017,0.139707 -0.34422,0.275716 -0.52245,0.407727 -0.17822,0.132012 -0.36059,0.260004 -0.54673,0.383956 -0.18615,0.123952 -0.37606,0.243625 -0.56999,0.359152 -0.19393,0.115526 -0.39166,0.226577 -0.59325,0.333313 -0.20158,0.106735 -0.40688,0.209379 -0.61598,0.306958 l -84.3902,39.3800241 c -0.33076,0.160257 -0.66776,0.306328 -1.01027,0.438216 -0.34251,0.131887 -0.69046,0.249903 -1.04283,0.353467 -0.0131,0.0034 -0.0266,0.0074 -0.0398,0.01137 -0.19295,0.05606 -0.38694,0.10775 -0.5824,0.15503 -0.0324,0.0079 -0.0649,0.01464 -0.0971,0.02274 -0.17258,0.04042 -0.34562,0.07754 -0.51986,0.111105 -0.0574,0.01109 -0.11458,0.02124 -0.17208,0.03152 -0.14493,0.02591 -0.29075,0.04973 -0.43667,0.0708 -0.0809,0.01179 -0.16136,0.02289 -0.24236,0.03307 -0.1323,0.01663 -0.26495,0.03123 -0.39791,0.04393 -0.0875,0.0084 -0.1746,0.01512 -0.262,0.02222 -0.11926,0.009 -0.23845,0.01622 -0.35812,0.02222 -0.10369,0.0055 -0.20753,0.0084 -0.31109,0.01137 -0.10903,0.003 -0.21836,0.0042 -0.32763,0.0041 h 97.89615 V -72.008945 Z" />
    <circle
       style="fill:#f2f2f2;fill-opacity:1;stroke-width:4.18011"
       id="path218"
       cx="-450.38623"
       cy="158.71696"
       r="132.29166" />
  </g>
</svg>
