<?xml version="1.0" encoding="UTF-8" standalone="no"?>
<!-- Created with Inkscape (http://www.inkscape.org/) -->

<svg
   width="1500"
   height="800"
   viewBox="0 0 396.87499 211.66667"
   version="1.1"
   id="svg3427"
   inkscape:version="1.2.1 (9c6d41e410, 2022-07-14)"
   sodipodi:docname="logo.svg"
   xmlns:inkscape="http://www.inkscape.org/namespaces/inkscape"
   xmlns:sodipodi="http://sodipodi.sourceforge.net/DTD/sodipodi-0.dtd"
   xmlns="http://www.w3.org/2000/svg"
   xmlns:svg="http://www.w3.org/2000/svg">
  <sodipodi:namedview
     id="namedview3429"
     pagecolor="#ffffff"
     bordercolor="#000000"
     borderopacity="0.25"
     inkscape:showpageshadow="2"
     inkscape:pageopacity="0.0"
     inkscape:pagecheckerboard="0"
     inkscape:deskcolor="#d1d1d1"
     inkscape:document-units="px"
     showgrid="false"
     inkscape:zoom="0.468"
     inkscape:cx="755.34188"
     inkscape:cy="436.96581"
     inkscape:window-width="1920"
     inkscape:window-height="991"
     inkscape:window-x="-9"
     inkscape:window-y="-9"
     inkscape:window-maximized="1"
     inkscape:current-layer="layer1" />
  <defs
     id="defs3424" />
  <g
     inkscape:label="Layer 1"
     inkscape:groupmode="layer"
     id="layer1">
    <path
       id="rect539-3"
       style="fill:#ec1313;fill-opacity:1;stroke-width:3.30038;stroke-linecap:round;stroke-miterlimit:5;paint-order:markers fill stroke"
       d="m 0,132.29166 h 396.875 v 79.375 H 0 Z" />
    <g
       id="g3716"
       style="fill:#333333"
       transform="translate(-132.29167,-224.89583)">
      <path
         d="m 132.29167,277.81258 h 28.0619 c 18.20015,0 27.26014,-7.2961 27.26014,-21.80812 v -9.30052 c 0,-14.51201 -9.05999,-21.80811 -27.26014,-21.80811 h -28.0619 z m 16.03537,-9.62123 v -33.6743 h 8.81945 c 9.62124,0 14.43185,3.8485 14.43185,11.54548 v 10.58335 c 0,7.69698 -4.81061,11.54547 -14.43185,11.54547 z"
         id="path668"
         style="font-weight:bold;font-size:35.2777px;line-height:1.25;font-family:Xolonium;-inkscape-font-specification:'Xolonium Bold';fill:#333333;stroke-width:0.601327" />
      <path
         d="m 198.03668,277.81258 h 16.03538 v -52.91675 h -16.03538 z"
         id="path670"
         style="font-weight:bold;font-size:35.2777px;line-height:1.25;font-family:Xolonium;-inkscape-font-specification:'Xolonium Bold';fill:#333333;stroke-width:0.601327" />
      <path
         d="m 225.2967,277.81258 h 51.31319 v -9.62123 h -35.27781 v -13.22919 h 31.26898 v -9.62122 h -31.26898 v -10.82389 h 35.27781 v -9.62122 H 225.2967 Z"
         id="path672"
         style="font-weight:bold;font-size:35.2777px;line-height:1.25;font-family:Xolonium;-inkscape-font-specification:'Xolonium Bold';fill:#333333;stroke-width:0.601327" />
      <path
         d="m 286.23099,266.90852 c 0,7.29609 4.57006,10.90406 13.63005,10.90406 h 37.68314 v -9.62123 h -32.47162 c -1.84407,0 -2.80619,-0.72159 -2.80619,-2.24495 v -29.18439 c 0,-1.52336 0.96212,-2.24496 2.80619,-2.24496 h 32.47162 v -9.62122 h -37.68314 c -9.05999,0 -13.63005,3.60796 -13.63005,10.90406 z"
         id="path674"
         style="font-weight:bold;font-size:35.2777px;line-height:1.25;font-family:Xolonium;-inkscape-font-specification:'Xolonium Bold';fill:#333333;stroke-width:0.601327" />
      <path
         d="m 341.95377,277.81258 h 15.71467 l 4.81063,-11.22477 h 24.69448 l 4.81061,11.22477 h 15.71467 L 384.8484,224.89583 h -20.04421 z m 24.6945,-20.846 8.17803,-18.84156 8.17806,18.84156 z"
         id="path676"
         style="font-weight:bold;font-size:35.2777px;line-height:1.25;font-family:Xolonium;-inkscape-font-specification:'Xolonium Bold';fill:#333333;stroke-width:0.601327" />
      <path
         d="M 412.91033,277.81258 H 452.197 c 9.05998,0 13.63008,-3.60797 13.63008,-10.90406 v -10.66353 c 0,-7.29609 -4.5701,-10.90405 -13.63008,-10.90405 h -20.44512 c -1.84406,0 -2.80617,-0.7216 -2.80617,-2.24496 v -6.33397 c 0,-1.52336 0.96211,-2.24496 2.80617,-2.24496 h 30.06633 v -9.62122 h -35.27783 c -9.05999,0 -13.63005,3.60796 -13.63005,10.90406 v 8.25822 c 0,7.29609 4.57006,10.90405 13.63005,10.90405 h 20.44512 c 1.84406,0 2.8062,0.72159 2.8062,2.24495 v 8.73929 c 0,1.52336 -0.96214,2.24495 -2.8062,2.24495 h -34.07517 z"
         id="path678"
         style="font-weight:bold;font-size:35.2777px;line-height:1.25;font-family:Xolonium;-inkscape-font-specification:'Xolonium Bold';fill:#333333;stroke-width:0.601327" />
      <path
         d="m 469.83575,234.51705 h 21.64776 v 43.29553 h 16.03537 v -43.29553 h 21.64777 v -9.62122 h -59.3309 z"
         id="path680"
         style="font-weight:bold;font-size:35.2777px;line-height:1.25;font-family:Xolonium;-inkscape-font-specification:'Xolonium Bold';fill:#333333;stroke-width:0.601327" />
      <path
         d="m 132.29167,343.95834 h 39.28588 c 9.05981,0 13.6298,-3.60797 13.6298,-10.90405 v -10.6635 c 0,-7.29609 -4.56999,-10.90405 -13.6298,-10.90405 h -20.44469 c -1.84404,0 -2.80613,-0.7216 -2.80613,-2.24493 v -6.33398 c 0,-1.52336 0.96209,-2.24496 2.80613,-2.24496 h 30.06574 v -9.6212 h -35.27713 c -9.05981,0 -13.6298,3.60796 -13.6298,10.90405 v 8.25819 c 0,7.29609 4.56999,10.90405 13.6298,10.90405 h 20.44469 c 1.84404,0 2.80614,0.72159 2.80614,2.24494 v 8.73927 c 0,1.52337 -0.9621,2.24496 -2.80614,2.24496 h -34.07449 z"
         style="font-weight:bold;font-size:35.2777px;line-height:1.25;font-family:Xolonium;-inkscape-font-specification:'Xolonium Bold';letter-spacing:1.00012px;fill:#333333;stroke-width:0.601321"
         id="path682" />
      <path
         d="m 191.48893,300.66287 h 21.64733 v 43.29547 h 16.03506 v -43.29547 h 21.64732 v -9.6212 h -59.32971 z"
         style="font-weight:bold;font-size:35.2777px;line-height:1.25;font-family:Xolonium;-inkscape-font-specification:'Xolonium Bold';letter-spacing:1.00012px;fill:#333333;stroke-width:0.601321"
         id="path684" />
      <path
         d="m 245.47478,343.95834 h 15.71435 l 4.81052,-11.22476 h 24.69398 l 4.81054,11.22476 h 15.71433 l -22.84994,-52.91667 h -20.04381 z m 24.69398,-20.84596 8.17789,-18.84155 8.17787,18.84155 z"
         style="font-weight:bold;font-size:35.2777px;line-height:1.25;font-family:Xolonium;-inkscape-font-specification:'Xolonium Bold';letter-spacing:1.00012px;fill:#333333;stroke-width:0.601321"
         id="path686" />
      <path
         d="m 305.87475,300.66287 h 21.64732 v 43.29547 h 16.03506 v -43.29547 h 21.64733 v -9.6212 h -59.32971 z"
         style="font-weight:bold;font-size:35.2777px;line-height:1.25;font-family:Xolonium;-inkscape-font-specification:'Xolonium Bold';letter-spacing:1.00012px;fill:#333333;stroke-width:0.601321"
         id="path688" />
      <path
         d="m 374.6931,343.95834 h 16.03506 V 291.04167 H 374.6931 Z"
         style="font-weight:bold;font-size:35.2777px;line-height:1.25;font-family:Xolonium;-inkscape-font-specification:'Xolonium Bold';letter-spacing:1.00012px;fill:#333333;stroke-width:0.601321"
         id="path690" />
      <path
         d="m 404.2255,333.05429 c 0,7.29608 4.57,10.90405 13.62981,10.90405 h 28.06136 c 9.0598,0 13.62978,-3.60797 13.62978,-10.90405 v -31.10857 c 0,-7.29609 -4.56998,-10.90405 -13.62978,-10.90405 h -28.06136 c -9.05981,0 -13.62981,3.60796 -13.62981,10.90405 z m 16.03506,-0.96212 v -29.18434 c 0,-1.52336 0.9621,-2.24496 2.80614,-2.24496 h 17.63858 c 1.84401,0 2.80611,0.7216 2.80611,2.24496 v 29.18434 c 0,1.52337 -0.9621,2.24496 -2.80611,2.24496 H 423.0667 c -1.84404,0 -2.80614,-0.72159 -2.80614,-2.24496 z"
         style="font-weight:bold;font-size:35.2777px;line-height:1.25;font-family:Xolonium;-inkscape-font-specification:'Xolonium Bold';letter-spacing:1.00012px;fill:#333333;stroke-width:0.601321"
         id="path692" />
      <path
         d="m 473.04395,343.95834 h 16.03506 v -31.75001 l 22.84997,31.75001 h 17.23767 v -52.91667 h -16.03506 v 31.75 l -22.84994,-31.75 h -17.2377 z"
         style="font-weight:bold;font-size:35.2777px;line-height:1.25;font-family:Xolonium;-inkscape-font-specification:'Xolonium Bold';letter-spacing:1.00012px;fill:#333333;stroke-width:0.601321"
         id="path694" />
    </g>
    <g
       id="g3786"
       style="fill:#f9f9f9"
       transform="translate(-132.29167,-224.89583)">
      <path
         d="m 396.87499,423.33335 h 39.95389 c 9.02957,0 13.58432,-3.60794 13.58432,-10.90402 v -7.45646 c 0,-4.8106 -1.99771,-8.09785 -5.99309,-9.70137 3.43603,-1.68372 5.19401,-4.81061 5.19401,-9.30051 v -4.65026 c 0,-7.29608 -4.55475,-10.90405 -13.58433,-10.90405 h -39.1548 z m 15.98156,-9.62121 v -13.22916 h 18.77832 c 1.83787,0 2.79678,0.72159 2.79678,2.24496 v 8.73925 c 0,1.52336 -0.95891,2.24495 -2.79678,2.24495 z m 0,-22.85036 v -10.82387 h 17.97924 c 1.83788,0 2.79677,0.7216 2.79677,2.24494 v 6.33397 c 0,1.52337 -0.95889,2.24496 -2.79677,2.24496 z"
         id="path696"
         style="font-weight:bold;font-size:35.2777px;line-height:1.25;font-family:Xolonium;-inkscape-font-specification:'Xolonium Bold';fill:#f9f9f9;stroke-width:0.600317" />
      <path
         d="m 460.80114,423.33335 h 27.9677 c 18.13908,0 27.16865,-7.29609 27.16865,-21.80807 v -9.3005 c 0,-14.51201 -9.02957,-21.8081 -27.16865,-21.8081 h -27.9677 z m 15.98155,-9.62121 v -33.67423 h 8.78986 c 9.58893,0 14.38339,3.84849 14.38339,11.54545 v 10.58332 c 0,7.69698 -4.79446,11.54546 -14.38339,11.54546 z"
         id="path698"
         style="font-weight:bold;font-size:35.2777px;line-height:1.25;font-family:Xolonium;-inkscape-font-specification:'Xolonium Bold';fill:#f9f9f9;stroke-width:0.600317" />
    </g>
  </g>
</svg>
